<mxfile host="Electron" agent="Mozilla/5.0 (Windows NT 10.0; Win64; x64) AppleWebKit/537.36 (KHTML, like Gecko) draw.io/26.0.9 Chrome/128.0.6613.186 Electron/32.2.5 Safari/537.36" version="26.0.9">
  <diagram name="Página-1" id="Cy7l2v_lQ-lDdIsOgyW_">
    <mxGraphModel dx="1687" dy="984" grid="1" gridSize="10" guides="1" tooltips="1" connect="1" arrows="1" fold="1" page="1" pageScale="1" pageWidth="827" pageHeight="1169" math="0" shadow="0">
      <root>
        <mxCell id="0" />
        <mxCell id="1" parent="0" />
        <mxCell id="wkG1PPZMFidNzNnbknhR-13" value="" style="edgeStyle=orthogonalEdgeStyle;rounded=0;orthogonalLoop=1;jettySize=auto;html=1;" edge="1" parent="1" source="wkG1PPZMFidNzNnbknhR-1" target="wkG1PPZMFidNzNnbknhR-7">
          <mxGeometry relative="1" as="geometry" />
        </mxCell>
        <mxCell id="wkG1PPZMFidNzNnbknhR-1" value="INÍCIO" style="ellipse;whiteSpace=wrap;html=1;" vertex="1" parent="1">
          <mxGeometry x="336" y="50" width="156" height="50" as="geometry" />
        </mxCell>
        <mxCell id="wkG1PPZMFidNzNnbknhR-2" value="FIM" style="ellipse;whiteSpace=wrap;html=1;" vertex="1" parent="1">
          <mxGeometry x="336" y="930" width="156" height="50" as="geometry" />
        </mxCell>
        <mxCell id="wkG1PPZMFidNzNnbknhR-15" value="" style="edgeStyle=orthogonalEdgeStyle;rounded=0;orthogonalLoop=1;jettySize=auto;html=1;" edge="1" parent="1" source="wkG1PPZMFidNzNnbknhR-4" target="wkG1PPZMFidNzNnbknhR-6">
          <mxGeometry relative="1" as="geometry" />
        </mxCell>
        <mxCell id="wkG1PPZMFidNzNnbknhR-4" value="&lt;div&gt;&lt;br&gt;&lt;/div&gt;N&lt;div&gt;&lt;/div&gt;" style="html=1;strokeWidth=2;shape=manualInput;whiteSpace=wrap;rounded=1;size=26;arcSize=11;" vertex="1" parent="1">
          <mxGeometry x="360" y="310" width="108" height="50" as="geometry" />
        </mxCell>
        <mxCell id="wkG1PPZMFidNzNnbknhR-17" value="" style="edgeStyle=orthogonalEdgeStyle;rounded=0;orthogonalLoop=1;jettySize=auto;html=1;entryX=0.5;entryY=0;entryDx=0;entryDy=0;entryPerimeter=0;" edge="1" parent="1" source="wkG1PPZMFidNzNnbknhR-6" target="wkG1PPZMFidNzNnbknhR-8">
          <mxGeometry relative="1" as="geometry">
            <mxPoint x="630" y="499.9999999999998" as="targetPoint" />
          </mxGeometry>
        </mxCell>
        <mxCell id="wkG1PPZMFidNzNnbknhR-21" value="" style="edgeStyle=orthogonalEdgeStyle;rounded=0;orthogonalLoop=1;jettySize=auto;html=1;" edge="1" parent="1" source="wkG1PPZMFidNzNnbknhR-6" target="wkG1PPZMFidNzNnbknhR-20">
          <mxGeometry relative="1" as="geometry" />
        </mxCell>
        <mxCell id="wkG1PPZMFidNzNnbknhR-6" value="ENQUANTO N != 0" style="strokeWidth=2;html=1;shape=mxgraph.flowchart.decision;whiteSpace=wrap;" vertex="1" parent="1">
          <mxGeometry x="326" y="460" width="176" height="80" as="geometry" />
        </mxCell>
        <mxCell id="wkG1PPZMFidNzNnbknhR-14" value="" style="edgeStyle=orthogonalEdgeStyle;rounded=0;orthogonalLoop=1;jettySize=auto;html=1;" edge="1" parent="1" source="wkG1PPZMFidNzNnbknhR-7" target="wkG1PPZMFidNzNnbknhR-4">
          <mxGeometry relative="1" as="geometry" />
        </mxCell>
        <mxCell id="wkG1PPZMFidNzNnbknhR-7" value="MAIOR = 0" style="shape=parallelogram;html=1;strokeWidth=2;perimeter=parallelogramPerimeter;whiteSpace=wrap;rounded=1;arcSize=12;size=0.23;" vertex="1" parent="1">
          <mxGeometry x="364" y="170" width="100" height="60" as="geometry" />
        </mxCell>
        <mxCell id="wkG1PPZMFidNzNnbknhR-18" value="" style="edgeStyle=orthogonalEdgeStyle;rounded=0;orthogonalLoop=1;jettySize=auto;html=1;" edge="1" parent="1" source="wkG1PPZMFidNzNnbknhR-8" target="wkG1PPZMFidNzNnbknhR-9">
          <mxGeometry relative="1" as="geometry" />
        </mxCell>
        <mxCell id="wkG1PPZMFidNzNnbknhR-22" value="" style="edgeStyle=orthogonalEdgeStyle;rounded=0;orthogonalLoop=1;jettySize=auto;html=1;" edge="1" parent="1" source="wkG1PPZMFidNzNnbknhR-8" target="wkG1PPZMFidNzNnbknhR-20">
          <mxGeometry relative="1" as="geometry" />
        </mxCell>
        <mxCell id="wkG1PPZMFidNzNnbknhR-8" value="N &amp;gt; MAIOR" style="strokeWidth=2;html=1;shape=mxgraph.flowchart.decision;whiteSpace=wrap;" vertex="1" parent="1">
          <mxGeometry x="540" y="585" width="176" height="80" as="geometry" />
        </mxCell>
        <mxCell id="wkG1PPZMFidNzNnbknhR-19" value="" style="edgeStyle=orthogonalEdgeStyle;rounded=0;orthogonalLoop=1;jettySize=auto;html=1;" edge="1" parent="1" source="wkG1PPZMFidNzNnbknhR-9" target="wkG1PPZMFidNzNnbknhR-10">
          <mxGeometry relative="1" as="geometry" />
        </mxCell>
        <mxCell id="wkG1PPZMFidNzNnbknhR-9" value="MAIOR += N" style="rounded=1;whiteSpace=wrap;html=1;" vertex="1" parent="1">
          <mxGeometry x="522" y="740" width="212" height="50" as="geometry" />
        </mxCell>
        <mxCell id="wkG1PPZMFidNzNnbknhR-12" value="" style="edgeStyle=orthogonalEdgeStyle;rounded=0;orthogonalLoop=1;jettySize=auto;html=1;entryX=1;entryY=0.5;entryDx=0;entryDy=0;" edge="1" parent="1" source="wkG1PPZMFidNzNnbknhR-10" target="wkG1PPZMFidNzNnbknhR-4">
          <mxGeometry relative="1" as="geometry">
            <mxPoint x="628" y="970" as="targetPoint" />
            <Array as="points">
              <mxPoint x="780" y="890" />
              <mxPoint x="780" y="335" />
            </Array>
          </mxGeometry>
        </mxCell>
        <mxCell id="wkG1PPZMFidNzNnbknhR-10" value="MAIOR" style="strokeWidth=2;html=1;shape=mxgraph.flowchart.display;whiteSpace=wrap;" vertex="1" parent="1">
          <mxGeometry x="582" y="870" width="92" height="40" as="geometry" />
        </mxCell>
        <mxCell id="wkG1PPZMFidNzNnbknhR-24" value="" style="edgeStyle=orthogonalEdgeStyle;rounded=0;orthogonalLoop=1;jettySize=auto;html=1;entryX=0.5;entryY=0;entryDx=0;entryDy=0;" edge="1" parent="1" source="wkG1PPZMFidNzNnbknhR-20" target="wkG1PPZMFidNzNnbknhR-2">
          <mxGeometry relative="1" as="geometry">
            <mxPoint x="414" y="970" as="targetPoint" />
          </mxGeometry>
        </mxCell>
        <mxCell id="wkG1PPZMFidNzNnbknhR-20" value="" style="ellipse;whiteSpace=wrap;html=1;strokeWidth=2;" vertex="1" parent="1">
          <mxGeometry x="391" y="602.5" width="46" height="45" as="geometry" />
        </mxCell>
        <mxCell id="wkG1PPZMFidNzNnbknhR-25" value="SIM" style="text;html=1;align=center;verticalAlign=middle;whiteSpace=wrap;rounded=0;" vertex="1" parent="1">
          <mxGeometry x="510" y="470" width="60" height="30" as="geometry" />
        </mxCell>
        <mxCell id="wkG1PPZMFidNzNnbknhR-26" value="SIM" style="text;html=1;align=center;verticalAlign=middle;whiteSpace=wrap;rounded=0;" vertex="1" parent="1">
          <mxGeometry x="620" y="690" width="60" height="30" as="geometry" />
        </mxCell>
        <mxCell id="wkG1PPZMFidNzNnbknhR-27" value="NÃO" style="text;html=1;align=center;verticalAlign=middle;whiteSpace=wrap;rounded=0;" vertex="1" parent="1">
          <mxGeometry x="364" y="555" width="60" height="30" as="geometry" />
        </mxCell>
        <mxCell id="wkG1PPZMFidNzNnbknhR-28" value="NÃO" style="text;html=1;align=center;verticalAlign=middle;whiteSpace=wrap;rounded=0;" vertex="1" parent="1">
          <mxGeometry x="468" y="620" width="60" height="30" as="geometry" />
        </mxCell>
      </root>
    </mxGraphModel>
  </diagram>
</mxfile>
